<?xml version="1.0" encoding="utf-8"?>
<!-- Generator: Adobe Illustrator 21.1.0, SVG Export Plug-In . SVG Version: 6.00 Build 0)  -->
<svg version="1.1" id="Icons" xmlns="http://www.w3.org/2000/svg" xmlns:xlink="http://www.w3.org/1999/xlink" x="0px" y="0px"
	 viewBox="0 0 48 48" style="enable-background:new 0 0 48 48;" xml:space="preserve">
<style type="text/css">
	.st0{opacity:0.15;fill:#45413C;}
	.st1{fill:#FF6196;}
	.st2{fill:#FF87AF;}
	.st3{fill:none;stroke:#45413C;stroke-linecap:round;stroke-linejoin:round;stroke-miterlimit:10;}
	.st4{fill:#FFE500;stroke:#45413C;stroke-linecap:round;stroke-linejoin:round;stroke-miterlimit:10;}
	.st5{fill:#FFE500;}
	.st6{fill:#EBCB00;}
	.st7{fill:#EBCB00;stroke:#45413C;stroke-linecap:round;stroke-linejoin:round;stroke-miterlimit:10;}
	.st8{fill:#FFF48C;}
	.st9{fill:#FFCCDD;stroke:#FFB0CA;stroke-linecap:round;stroke-linejoin:round;stroke-miterlimit:10;}
	.st10{fill:#FFB0CA;stroke:#FF87AF;stroke-linecap:round;stroke-linejoin:round;stroke-miterlimit:10;}
	.st11{opacity:0.7;fill:#FFE5EE;}
	.st12{fill:#009FD9;}
	.st13{fill:#00B8F0;}
	.st14{fill:#656769;}
	.st15{fill:#87898C;}
	.st16{fill:#FF6242;stroke:#45413C;stroke-linecap:round;stroke-linejoin:round;stroke-miterlimit:10;}
	.st17{fill:#4AEFF7;}
	.st18{fill:#00DFEB;}
	.st19{fill:#A6FBFF;}
	.st20{fill:#FFFFFF;}
	.st21{fill:#E5F8FF;}
	.st22{fill:#E5F8FF;stroke:#45413C;stroke-linecap:round;stroke-linejoin:round;stroke-miterlimit:10;}
	.st23{fill:#FFE500;stroke:#EBCB00;stroke-linecap:round;stroke-linejoin:round;stroke-miterlimit:10;}
	.st24{fill:#BDBEC0;}
	.st25{fill:#4ACFFF;}
	.st26{fill:#E8F4FA;stroke:#45413C;stroke-linecap:round;stroke-linejoin:round;stroke-miterlimit:10;}
	.st27{fill:#80DDFF;}
	.st28{fill:#009FD9;stroke:#45413C;stroke-linecap:round;stroke-linejoin:round;stroke-miterlimit:10;}
	.st29{fill:#B8ECFF;}
	.st30{fill:#4ACFFF;stroke:#45413C;stroke-linecap:round;stroke-linejoin:round;stroke-miterlimit:10;}
	.st31{fill:#B8ECFF;stroke:#45413C;stroke-linecap:round;stroke-linejoin:round;stroke-miterlimit:10;}
	.st32{fill:#FFFACF;}
	.st33{fill:#FFF48C;stroke:#45413C;stroke-linecap:round;stroke-linejoin:round;stroke-miterlimit:10;}
	.st34{fill:#BF8256;}
	.st35{fill:#DEA47A;}
	.st36{fill:#656769;stroke:#45413C;stroke-linecap:round;stroke-linejoin:round;stroke-miterlimit:10;}
	.st37{fill:#FF8A14;}
	.st38{fill:#FFAA54;}
	.st39{fill:#EB6D00;}
	.st40{fill:#627B8C;stroke:#45413C;stroke-linecap:round;stroke-linejoin:round;stroke-miterlimit:10;}
	.st41{fill:#FFFFFF;stroke:#45413C;stroke-linecap:round;stroke-linejoin:round;stroke-miterlimit:10;}
	.st42{fill:#E0366F;stroke:#45413C;stroke-linecap:round;stroke-linejoin:round;stroke-miterlimit:10;}
	.st43{fill:#FF87AF;stroke:#45413C;stroke-linecap:round;stroke-linejoin:round;stroke-miterlimit:10;}
	.st44{fill:#E0366F;}
	.st45{fill:#FF6196;stroke:#45413C;stroke-linecap:round;stroke-linejoin:round;stroke-miterlimit:10;}
	.st46{fill:#525252;}
	.st47{fill:#DEBB7E;}
	.st48{fill:#F0D5A8;}
	.st49{fill:#DAEDF7;}
	.st50{fill:#F7E5C6;}
	.st51{fill:#DEBB7E;stroke:#45413C;stroke-linecap:round;stroke-linejoin:round;stroke-miterlimit:10;}
	.st52{fill:#FFF5E3;}
	.st53{fill:#00F5BC;}
	.st54{fill:#FFB0CA;stroke:#45413C;stroke-linecap:round;stroke-linejoin:round;stroke-miterlimit:10;}
	.st55{fill:#8CFFE4;}
	.st56{fill:#00DBA8;}
	.st57{fill:#87898C;stroke:#45413C;stroke-linecap:round;stroke-linejoin:round;stroke-miterlimit:10;}
	.st58{fill:#FF6242;}
	.st59{fill:#FF866E;}
	.st60{fill:#F0F0F0;}
	.st61{fill:#BDBEC0;stroke:#45413C;stroke-width:1.0064;stroke-linecap:round;stroke-linejoin:round;stroke-miterlimit:10;}
	.st62{fill:#947746;stroke:#45413C;stroke-linecap:round;stroke-linejoin:round;stroke-miterlimit:10;}
	.st63{fill:#B89558;}
	.st64{fill:#E04122;}
	.st65{fill:#C0DCEB;}
	.st66{fill:#E8F4FA;}
	.st67{fill:#00B8F0;stroke:#45413C;stroke-linecap:round;stroke-linejoin:round;stroke-miterlimit:10;}
	.st68{fill:#80DDFF;stroke:#45413C;stroke-linecap:round;stroke-linejoin:round;stroke-miterlimit:10;}
	.st69{fill:#9CEB60;}
	.st70{fill:#C8FFA1;}
	.st71{fill:#FFB0CA;}
	.st72{fill:#FFCCDD;}
	.st73{fill:#FFE5EE;}
	.st74{fill:#45413C;stroke:#45413C;stroke-linecap:round;stroke-linejoin:round;stroke-miterlimit:10;}
	.st75{fill:#FFCABF;}
	.st76{fill:#FFA694;}
	.st77{fill:#FFA694;stroke:#45413C;stroke-linecap:round;stroke-linejoin:round;stroke-miterlimit:10;}
	.st78{fill:#FFCC99;}
	.st79{fill:#8CA4B8;}
	.st80{fill:#ADC4D9;}
	.st81{fill:#F0D5A8;stroke:#45413C;stroke-linecap:round;stroke-linejoin:round;stroke-miterlimit:10;}
	.st82{fill:#BDBEC0;stroke:#45413C;stroke-linecap:round;stroke-linejoin:round;stroke-miterlimit:10;}
	.st83{fill:#E0E0E0;}
	.st84{fill:#45413C;}
	.st85{fill:#E5FEFF;}
	.st86{fill:#FFFCE5;}
	.st87{fill:#FFAA54;stroke:#45413C;stroke-linecap:round;stroke-linejoin:round;stroke-miterlimit:10;}
	.st88{fill:#6DD627;}
	.st89{fill:#46B000;}
	.st90{fill:#FFE8E0;}
	.st91{fill:#FFCEBF;}
	.st92{fill:#FFE8D1;}
	.st93{fill:#FFF48C;stroke:#4F4B45;stroke-linecap:round;stroke-linejoin:round;stroke-miterlimit:10;}
	.st94{fill:#FFDCD1;stroke:#4F4B45;stroke-linejoin:round;stroke-miterlimit:10;}
	.st95{fill:none;stroke:#4F4B45;stroke-linejoin:round;stroke-miterlimit:10;}
	.st96{fill:none;stroke:#4F4B45;stroke-linecap:round;stroke-linejoin:round;stroke-miterlimit:10;}
	.st97{fill:#656769;stroke:#4F4B45;stroke-linejoin:round;stroke-miterlimit:10;}
	.st98{fill:#87898C;stroke:#4F4B45;stroke-linecap:round;stroke-linejoin:round;stroke-miterlimit:10;}
	.st99{fill:#C0DCEB;stroke:#4F4B45;stroke-linecap:round;stroke-linejoin:round;stroke-miterlimit:10;}
	.st100{fill:#FFA694;stroke:#4F4B45;stroke-linecap:round;stroke-linejoin:round;stroke-miterlimit:10;}
	.st101{fill:#E04122;stroke:#45413C;stroke-linecap:round;stroke-linejoin:round;stroke-miterlimit:10;}
	.st102{fill:#FFFCE5;stroke:#45413C;stroke-linecap:round;stroke-linejoin:round;stroke-miterlimit:10;}
	.st103{fill:#915E3A;}
	.st104{fill:none;stroke:#915E3A;stroke-linecap:round;stroke-linejoin:round;stroke-miterlimit:10;}
	.st105{fill:#915E3A;stroke:#45413C;stroke-linecap:round;stroke-linejoin:round;stroke-miterlimit:10;}
	.st106{fill:#FF866E;stroke:#45413C;stroke-linecap:round;stroke-linejoin:round;stroke-miterlimit:10;}
	.st107{fill:#FFF5E3;stroke:#45413C;stroke-linecap:round;stroke-linejoin:round;stroke-miterlimit:10;}
	.st108{fill:#FFDCD1;}
	.st109{fill:#FFDCD1;stroke:#45413C;stroke-linecap:round;stroke-linejoin:round;stroke-miterlimit:10;}
	.st110{fill:#F0C2A1;}
	.st111{fill:#FFE3CF;}
	.st112{fill:#FFFACF;stroke:#45413C;stroke-linecap:round;stroke-linejoin:round;stroke-miterlimit:10;}
	.st113{fill:#DEA47A;stroke:#45413C;stroke-linecap:round;stroke-linejoin:round;stroke-miterlimit:10;}
	.st114{fill:#F0C2A1;stroke:#45413C;stroke-linecap:round;stroke-linejoin:round;stroke-miterlimit:10;}
	.st115{fill:#EB6D00;stroke:#45413C;stroke-linecap:round;stroke-linejoin:round;stroke-miterlimit:10;}
	.st116{fill:#FF8A14;stroke:#45413C;stroke-linecap:round;stroke-linejoin:round;stroke-miterlimit:10;}
	.st117{fill:#D9FDFF;}
	.st118{fill:#C8FFA1;stroke:#45413C;stroke-linecap:round;stroke-linejoin:round;stroke-miterlimit:10;}
	.st119{fill:#E4FFD1;}
	.st120{fill:#E0E0E0;stroke:#45413C;stroke-linecap:round;stroke-linejoin:round;stroke-miterlimit:10;}
	.st121{fill:#FFCCDD;stroke:#45413C;stroke-linecap:round;stroke-linejoin:round;stroke-miterlimit:10;}
	.st122{fill:#BF8256;stroke:#45413C;stroke-linecap:round;stroke-linejoin:round;stroke-miterlimit:10;}
	.st123{fill:#C0DCEB;stroke:#45413C;stroke-linecap:round;stroke-linejoin:round;stroke-miterlimit:10;}
</style>
<g id="XMLID_11731_">
	<path id="XMLID_11752_" class="st34" d="M24.2,41.4l3.4-1.7c0.2-0.1,0.4-0.1,0.6,0l1.3,0.9c0.1,0.1,0.3,0.1,0.5,0.1
		c0.6-0.2,2.5-0.7,4.1-2.2c1.4-1.2,2.3-3,2.7-3.9c0.1-0.3,0.5-0.4,0.8-0.3l0.8,0.5c0.2,0.1,0.6,0.1,0.7-0.1c0.7-0.9,2.2-3.3,2.7-7.1
		c0.7-5.9-1.3-9.8-1.3-9.8l1.6,0.3c0.4,0.1,0.7-0.2,0.7-0.6c0-1.4-0.3-4.5-2.4-7.5c-2-2.9-3.8-4.2-4.8-4.7c-0.3-0.2-0.4-0.6-0.1-0.9
		L35.9,4c0.3-0.3,0.2-0.7-0.1-0.9c-1.1-0.5-3.4-1.4-6-1.2c-2.8,0.2-4.7,1.4-5.4,2c-0.2,0.2-0.5,0.2-0.7,0c-0.7-0.6-2.6-1.8-5.4-2
		c-2.6-0.2-4.9,0.7-6,1.2c-0.4,0.2-0.4,0.6-0.1,0.9l0.3,0.3c0.3,0.3,0.2,0.7-0.1,0.9c-1,0.5-2.8,1.8-4.8,4.7c-2,3-2.3,6.2-2.4,7.5
		c0,0.4,0.3,0.6,0.7,0.6l1.6-0.3c0,0-2,4-1.3,9.8c0.4,3.8,2,6.2,2.7,7.1c0.2,0.2,0.5,0.3,0.7,0.1l0.8-0.5c0.3-0.2,0.7,0,0.8,0.3
		c0.4,0.9,1.3,2.7,2.7,3.9c1.7,1.5,3.5,2,4.1,2.2c0.2,0,0.3,0,0.5-0.1l1.3-0.9c0.2-0.1,0.4-0.1,0.6,0l3.4,1.7
		C23.9,41.5,24.1,41.5,24.2,41.4z"/>
	<g id="XMLID_11750_">
		<path id="XMLID_11751_" class="st35" d="M5.5,18.1c0.3-1.3,0.9-2.9,2-4.4c2-2.9,3.8-4.2,4.8-4.7c0.3-0.2,0.4-0.6,0.1-0.9l-0.3-0.3
			c-0.3-0.3-0.2-0.7,0.1-0.9c1.1-0.5,3.4-1.4,6-1.2c2.8,0.2,4.7,1.4,5.4,2c0.2,0.2,0.5,0.2,0.7,0c0.7-0.6,2.6-1.8,5.4-2
			c2.6-0.2,4.9,0.7,6,1.2c0.4,0.2,0.4,0.6,0.1,0.9L35.6,8c-0.3,0.3-0.2,0.7,0.1,0.9c1,0.5,2.8,1.8,4.8,4.7c1,1.5,1.6,3.1,2,4.4
			c0.2-0.1,0.4-0.3,0.4-0.6c0-1.4-0.3-4.5-2.4-7.5c-2-2.9-3.8-4.2-4.8-4.7c-0.3-0.2-0.4-0.6-0.1-0.9L35.9,4c0.3-0.3,0.2-0.7-0.1-0.9
			c-1.1-0.5-3.4-1.4-6-1.2c-2.8,0.2-4.7,1.4-5.4,2c-0.2,0.2-0.5,0.2-0.7,0c-0.7-0.6-2.6-1.8-5.4-2c-2.6-0.2-4.9,0.7-6,1.2
			c-0.4,0.2-0.4,0.6-0.1,0.9l0.3,0.3c0.3,0.3,0.2,0.7-0.1,0.9c-1,0.5-2.8,1.8-4.8,4.7c-2,3-2.3,6.2-2.4,7.5
			C5.1,17.8,5.3,18,5.5,18.1z"/>
	</g>
	<path id="XMLID_11749_" class="st3" d="M24.2,41.4l3.4-1.7c0.2-0.1,0.4-0.1,0.6,0l1.3,0.9c0.1,0.1,0.3,0.1,0.5,0.1
		c0.6-0.2,2.5-0.7,4.1-2.2c1.4-1.2,2.3-3,2.7-3.9c0.1-0.3,0.5-0.4,0.8-0.3l0.8,0.5c0.2,0.1,0.6,0.1,0.7-0.1c0.7-0.9,2.2-3.3,2.7-7.1
		c0.7-5.9-1.3-9.8-1.3-9.8l1.6,0.3c0.4,0.1,0.7-0.2,0.7-0.6c0-1.4-0.3-4.5-2.4-7.5c-2-2.9-3.8-4.2-4.8-4.7c-0.3-0.2-0.4-0.6-0.1-0.9
		L35.9,4c0.3-0.3,0.2-0.7-0.1-0.9c-1.1-0.5-3.4-1.4-6-1.2c-2.8,0.2-4.7,1.4-5.4,2c-0.2,0.2-0.5,0.2-0.7,0c-0.7-0.6-2.6-1.8-5.4-2
		c-2.6-0.2-4.9,0.7-6,1.2c-0.4,0.2-0.4,0.6-0.1,0.9l0.3,0.3c0.3,0.3,0.2,0.7-0.1,0.9c-1,0.5-2.8,1.8-4.8,4.7c-2,3-2.3,6.2-2.4,7.5
		c0,0.4,0.3,0.6,0.7,0.6l1.6-0.3c0,0-2,4-1.3,9.8c0.4,3.8,2,6.2,2.7,7.1c0.2,0.2,0.5,0.3,0.7,0.1l0.8-0.5c0.3-0.2,0.7,0,0.8,0.3
		c0.4,0.9,1.3,2.7,2.7,3.9c1.7,1.5,3.5,2,4.1,2.2c0.2,0,0.3,0,0.5-0.1l1.3-0.9c0.2-0.1,0.4-0.1,0.6,0l3.4,1.7
		C23.9,41.5,24.1,41.5,24.2,41.4z"/>
	<path id="XMLID_11748_" class="st48" d="M37.5,25.5l-0.6-6.9c-0.2-2.2-1-4.3-2.2-6.1c0.4-0.6,0.7-1.4,0.7-2.2c0-2.2-1.8-4-4-4
		c-1.2,0-2.2,0.5-3,1.3C27,7.1,25.5,6.9,24,6.9c-1.6,0-3.1,0.3-4.5,0.8c-0.7-0.8-1.8-1.4-3-1.4c-2.2,0-4,1.8-4,4
		c0,0.9,0.3,1.7,0.8,2.4c-1.1,1.7-1.9,3.7-2.1,5.9l-0.6,6.9C10,30.1,13.6,34,18.1,34h1c0.7,1.1,2.6,1.5,4.9,1.5s4.1-0.5,4.9-1.5h1
		C34.4,34,37.9,30.1,37.5,25.5z"/>
	<g id="XMLID_11746_">
		<path id="XMLID_11747_" class="st50" d="M16.4,8.8c1.2,0,2.3,0.5,3,1.4c1.4-0.5,3-0.8,4.5-0.8c1.5,0,3,0.3,4.4,0.8
			c0.7-0.8,1.8-1.3,3-1.3c1.8,0,3.3,1.2,3.8,2.8c0.1-0.4,0.2-0.8,0.2-1.3c0-2.2-1.8-4-4-4c-1.2,0-2.2,0.5-3,1.3
			C27,7.1,25.5,6.9,24,6.9c-1.6,0-3.1,0.3-4.5,0.8c-0.7-0.8-1.8-1.4-3-1.4c-2.2,0-4,1.8-4,4c0,0.4,0.1,0.9,0.2,1.3
			C13.1,10,14.6,8.8,16.4,8.8z"/>
	</g>
	<path id="XMLID_11745_" class="st3" d="M37.5,25.5l-0.6-6.9c-0.2-2.2-1-4.3-2.2-6.1c0.4-0.6,0.7-1.4,0.7-2.2c0-2.2-1.8-4-4-4
		c-1.2,0-2.2,0.5-3,1.3C27,7.1,25.5,6.9,24,6.9c-1.6,0-3.1,0.3-4.5,0.8c-0.7-0.8-1.8-1.4-3-1.4c-2.2,0-4,1.8-4,4
		c0,0.9,0.3,1.7,0.8,2.4c-1.1,1.7-1.9,3.7-2.1,5.9l-0.6,6.9C10,30.1,13.6,34,18.1,34h1c0.7,1.1,2.6,1.5,4.9,1.5s4.1-0.5,4.9-1.5h1
		C34.4,34,37.9,30.1,37.5,25.5z"/>
	<ellipse id="XMLID_11744_" class="st102" cx="24" cy="32.5" rx="5.8" ry="3.9"/>
	<ellipse id="XMLID_11743_" class="st0" cx="24" cy="45.3" rx="16.5" ry="1.7"/>
	<path id="XMLID_11742_" class="st20" d="M34.2,21.8V19c0-1.3-1.1-2.4-2.4-2.4h-2.8c-1.4,0-2.4,1.2-2.2,2.6c0.3,1.7,0.3,6.2,0.3,7.3
		c0,2.8-1.5,1.1-3.3,1.1s-3.3,1.6-3.3-1.1c0-1.2,0-5.7,0.3-7.3c0.2-1.4-0.8-2.6-2.2-2.6h-2.8c-1.3,0-2.4,1.1-2.4,2.4v2.8
		c-2.4,0.9-3.3,2.5-3.3,5.2c0.3,3.9,3.6,7,7.7,7c0,0,1,0.1,1.1,0.1c2.8-0.8,4.8-2.5,4.8-4c0,1.4,2,3.1,4.8,4c0,0,1.1-0.1,1.1-0.1
		c4.1,0,7.4-3.1,7.7-7C37.5,24.1,36.6,22.6,34.2,21.8z"/>
	<g id="XMLID_11740_">
		<path id="XMLID_11741_" class="st86" d="M29.8,31.2c0,0-1,0.1-1.1,0.1c-2.5-0.8-4.4-2.2-4.7-3.6c0,0,0,0-0.1,0s0,0-0.1,0
			c-0.3,1.3-2.2,2.8-4.7,3.6c0,0-1.1-0.1-1.1-0.1c-3.7,0-6.7-2.6-7.5-6c-0.1,0.5-0.2,1.1-0.2,1.8c0.3,3.9,3.6,7,7.7,7
			c0,0,1,0.1,1.1,0.1c2.8-0.8,4.8-2.5,4.8-4c0,1.4,2,3.1,4.8,4c0,0,1.1-0.1,1.1-0.1c4.1,0,7.4-3.1,7.7-7c0-0.7,0-1.3-0.2-1.8
			C36.6,28.6,33.5,31.2,29.8,31.2z"/>
	</g>
	<path id="XMLID_11739_" class="st3" d="M34.2,21.8V19c0-1.3-1.1-2.4-2.4-2.4h-2.8c-1.4,0-2.4,1.2-2.2,2.6c0.3,1.7,0.3,6.2,0.3,7.3
		c0,2.8-1.5,1.1-3.3,1.1s-3.3,1.6-3.3-1.1c0-1.2,0-5.7,0.3-7.3c0.2-1.4-0.8-2.6-2.2-2.6h-2.8c-1.3,0-2.4,1.1-2.4,2.4v2.8
		c-2.4,0.9-3.3,2.5-3.3,5.2c0.3,3.9,3.6,7,7.7,7c0,0,1,0.1,1.1,0.1c2.8-0.8,4.8-2.5,4.8-4c0,1.4,2,3.1,4.8,4c0,0,1.1-0.1,1.1-0.1
		c4.1,0,7.4-3.1,7.7-7C37.5,24.1,36.6,22.6,34.2,21.8z"/>
	<path id="XMLID_11738_" class="st77" d="M27,27.4c0,0.8-1.4,2.7-3.1,2.7c-1.7,0-3.1-1.9-3.1-2.7c0-0.8,1.4-1.4,3.1-1.4
		C25.7,26,27,26.6,27,27.4z"/>
	<circle id="XMLID_11737_" class="st74" cx="30.6" cy="20.6" r="0.9"/>
	<circle id="XMLID_11736_" class="st74" cx="17.3" cy="20.6" r="0.9"/>
	<ellipse id="XMLID_11735_" class="st38" cx="33.1" cy="27.1" rx="1.9" ry="1.1"/>
	<ellipse id="XMLID_11734_" class="st38" cx="14.9" cy="27.1" rx="1.9" ry="1.1"/>
	<path id="XMLID_11733_" class="st3" d="M15.1,11c0,0-0.3-1.2,0.5-1.8C16.4,8.5,17.3,9,17.3,9"/>
	<path id="XMLID_11732_" class="st3" d="M32.8,11c0,0,0.3-1.2-0.5-1.8C31.5,8.5,30.6,9,30.6,9"/>
</g>
</svg>
